<?xml version="1.0" encoding="UTF-8" standalone="no"?>
<!DOCTYPE svg PUBLIC "-//W3C//DTD SVG 1.1//EN"
 "http://www.w3.org/Graphics/SVG/1.1/DTD/svg11.dtd">
<!-- Generated by graphviz version 2.38.0 (20140413.2041)
 -->
<!-- Title: G Pages: 1 -->
<svg width="643pt" height="404pt"
 viewBox="0.00 0.00 643.24 404.00" xmlns="http://www.w3.org/2000/svg" xmlns:xlink="http://www.w3.org/1999/xlink">
<g id="graph0" class="graph" transform="scale(1 1) rotate(0) translate(4 400)">
<title>G</title>
<polygon fill="white" stroke="none" points="-4,4 -4,-400 639.239,-400 639.239,4 -4,4"/>
<!-- Front -->
<g id="node1" class="node"><title>Front</title>
<ellipse fill="none" stroke="black" cx="329.044" cy="-378" rx="29.795" ry="18"/>
<text text-anchor="middle" x="329.044" y="-374.3" font-family="Times,serif" font-size="14.00">Front</text>
</g>
<!-- Restaurants -->
<g id="node2" class="node"><title>Restaurants</title>
<ellipse fill="none" stroke="black" cx="369.044" cy="-306" rx="51.9908" ry="18"/>
<text text-anchor="middle" x="369.044" y="-302.3" font-family="Times,serif" font-size="14.00">Restaurants</text>
</g>
<!-- Front&#45;&gt;Restaurants -->
<g id="edge5" class="edge"><title>Front&#45;&gt;Restaurants</title>
<path fill="none" stroke="black" d="M338.322,-360.765C343.03,-352.525 348.863,-342.317 354.178,-333.016"/>
<polygon fill="black" stroke="black" points="357.337,-334.543 359.259,-324.124 351.259,-331.07 357.337,-334.543"/>
</g>
<!-- MenuItem -->
<g id="node3" class="node"><title>MenuItem</title>
<ellipse fill="none" stroke="black" cx="82.0444" cy="-90" rx="48.1917" ry="18"/>
<text text-anchor="middle" x="82.0444" y="-86.3" font-family="Times,serif" font-size="14.00">MenuItem</text>
</g>
<!-- Front&#45;&gt;MenuItem -->
<g id="edge7" class="edge"><title>Front&#45;&gt;MenuItem</title>
<path fill="none" stroke="black" d="M308.588,-364.867C264.612,-337.674 160.792,-267.333 108.044,-180 96.5655,-160.995 89.9084,-136.633 86.2095,-118.204"/>
<polygon fill="black" stroke="black" points="89.6072,-117.328 84.3593,-108.124 82.7222,-118.592 89.6072,-117.328"/>
</g>
<!-- Restaurant -->
<g id="node4" class="node"><title>Restaurant</title>
<ellipse fill="none" stroke="black" cx="291.044" cy="-234" rx="48.1917" ry="18"/>
<text text-anchor="middle" x="291.044" y="-230.3" font-family="Times,serif" font-size="14.00">Restaurant</text>
</g>
<!-- Front&#45;&gt;Restaurant -->
<g id="edge6" class="edge"><title>Front&#45;&gt;Restaurant</title>
<path fill="none" stroke="black" d="M321.401,-360.1C316.996,-349.829 311.637,-336.355 308.044,-324 302.124,-303.64 297.725,-280.047 294.887,-262.27"/>
<polygon fill="black" stroke="black" points="298.332,-261.644 293.359,-252.289 291.413,-262.703 298.332,-261.644"/>
</g>
<!-- RestaurantMenu -->
<g id="node5" class="node"><title>RestaurantMenu</title>
<ellipse fill="none" stroke="black" cx="187.044" cy="-162" rx="69.5877" ry="18"/>
<text text-anchor="middle" x="187.044" y="-158.3" font-family="Times,serif" font-size="14.00">RestaurantMenu</text>
</g>
<!-- Front&#45;&gt;RestaurantMenu -->
<g id="edge4" class="edge"><title>Front&#45;&gt;RestaurantMenu</title>
<path fill="none" stroke="black" d="M315.874,-361.427C296.679,-338.357 260.433,-293.363 234.044,-252 221.119,-231.74 208.517,-207.562 199.621,-189.523"/>
<polygon fill="black" stroke="black" points="202.605,-187.656 195.081,-180.196 196.311,-190.719 202.605,-187.656"/>
</g>
<!-- Login -->
<g id="node6" class="node"><title>Login</title>
<ellipse fill="none" stroke="black" cx="471.044" cy="-306" rx="31.6951" ry="18"/>
<text text-anchor="middle" x="471.044" y="-302.3" font-family="Times,serif" font-size="14.00">Login</text>
</g>
<!-- Front&#45;&gt;Login -->
<g id="edge1" class="edge"><title>Front&#45;&gt;Login</title>
<path fill="none" stroke="black" d="M351.545,-365.908C374.947,-354.372 411.815,-336.197 438.414,-323.085"/>
<polygon fill="black" stroke="black" points="440.284,-326.066 447.705,-318.505 437.188,-319.787 440.284,-326.066"/>
</g>
<!-- UserAccount -->
<g id="node7" class="node"><title>UserAccount</title>
<ellipse fill="none" stroke="black" cx="578.044" cy="-306" rx="57.3905" ry="18"/>
<text text-anchor="middle" x="578.044" y="-302.3" font-family="Times,serif" font-size="14.00">UserAccount</text>
</g>
<!-- Front&#45;&gt;UserAccount -->
<g id="edge2" class="edge"><title>Front&#45;&gt;UserAccount</title>
<path fill="none" stroke="black" d="M355.692,-369.509C396.472,-358.044 475.093,-335.942 527.07,-321.33"/>
<polygon fill="black" stroke="black" points="528.09,-324.679 536.77,-318.603 526.196,-317.94 528.09,-324.679"/>
</g>
<!-- Restaurants&#45;&gt;Restaurant -->
<g id="edge15" class="edge"><title>Restaurants&#45;&gt;Restaurant</title>
<path fill="none" stroke="black" d="M350.954,-288.765C340.642,-279.511 327.562,-267.772 316.256,-257.626"/>
<polygon fill="black" stroke="black" points="318.548,-254.98 308.768,-250.906 313.873,-260.19 318.548,-254.98"/>
</g>
<!-- RestaurantAdd -->
<g id="node11" class="node"><title>RestaurantAdd</title>
<ellipse fill="none" stroke="black" cx="499.044" cy="-234" rx="63.8893" ry="18"/>
<text text-anchor="middle" x="499.044" y="-230.3" font-family="Times,serif" font-size="14.00">RestaurantAdd</text>
</g>
<!-- Restaurants&#45;&gt;RestaurantAdd -->
<g id="edge16" class="edge"><title>Restaurants&#45;&gt;RestaurantAdd</title>
<path fill="none" stroke="black" d="M395.98,-290.496C415.027,-280.24 440.806,-266.359 461.817,-255.046"/>
<polygon fill="black" stroke="black" points="463.648,-258.035 470.794,-250.212 460.33,-251.871 463.648,-258.035"/>
</g>
<!-- RestaurantEdit -->
<g id="node12" class="node"><title>RestaurantEdit</title>
<ellipse fill="none" stroke="black" cx="376.044" cy="-162" rx="63.0888" ry="18"/>
<text text-anchor="middle" x="376.044" y="-158.3" font-family="Times,serif" font-size="14.00">RestaurantEdit</text>
</g>
<!-- Restaurants&#45;&gt;RestaurantEdit -->
<g id="edge17" class="edge"><title>Restaurants&#45;&gt;RestaurantEdit</title>
<path fill="none" stroke="black" d="M369.889,-287.871C371.082,-263.67 373.273,-219.211 374.694,-190.393"/>
<polygon fill="black" stroke="black" points="378.2,-190.349 375.197,-180.189 371.209,-190.005 378.2,-190.349"/>
</g>
<!-- RestaurantDelete -->
<g id="node13" class="node"><title>RestaurantDelete</title>
<ellipse fill="none" stroke="black" cx="529.044" cy="-162" rx="71.4873" ry="18"/>
<text text-anchor="middle" x="529.044" y="-158.3" font-family="Times,serif" font-size="14.00">RestaurantDelete</text>
</g>
<!-- Restaurants&#45;&gt;RestaurantDelete -->
<g id="edge18" class="edge"><title>Restaurants&#45;&gt;RestaurantDelete</title>
<path fill="none" stroke="black" d="M376.537,-288.034C385.821,-268.591 403.243,-236.744 426.044,-216 441.951,-201.528 462.541,-189.899 481.125,-181.263"/>
<polygon fill="black" stroke="black" points="482.641,-184.419 490.341,-177.142 479.783,-178.029 482.641,-184.419"/>
</g>
<!-- MenuItemEdit -->
<g id="node9" class="node"><title>MenuItemEdit</title>
<ellipse fill="none" stroke="black" cx="63.0444" cy="-18" rx="63.0888" ry="18"/>
<text text-anchor="middle" x="63.0444" y="-14.3" font-family="Times,serif" font-size="14.00">MenuItemEdit</text>
</g>
<!-- MenuItem&#45;&gt;MenuItemEdit -->
<g id="edge9" class="edge"><title>MenuItem&#45;&gt;MenuItemEdit</title>
<path fill="none" stroke="black" d="M77.445,-72.055C75.3295,-64.2609 72.7675,-54.8219 70.3944,-46.0789"/>
<polygon fill="black" stroke="black" points="73.7308,-45.0093 67.7334,-36.2753 66.9752,-46.843 73.7308,-45.0093"/>
</g>
<!-- MenuItemDelete -->
<g id="node10" class="node"><title>MenuItemDelete</title>
<ellipse fill="none" stroke="black" cx="216.044" cy="-18" rx="71.4873" ry="18"/>
<text text-anchor="middle" x="216.044" y="-14.3" font-family="Times,serif" font-size="14.00">MenuItemDelete</text>
</g>
<!-- MenuItem&#45;&gt;MenuItemDelete -->
<g id="edge10" class="edge"><title>MenuItem&#45;&gt;MenuItemDelete</title>
<path fill="none" stroke="black" d="M108.839,-75.0027C128.487,-64.7389 155.455,-50.6513 177.427,-39.1734"/>
<polygon fill="black" stroke="black" points="179.259,-42.1653 186.501,-34.4329 176.017,-35.9609 179.259,-42.1653"/>
</g>
<!-- Restaurant&#45;&gt;RestaurantMenu -->
<g id="edge3" class="edge"><title>Restaurant&#45;&gt;RestaurantMenu</title>
<path fill="none" stroke="black" d="M268.734,-217.983C254.331,-208.289 235.359,-195.519 219.323,-184.726"/>
<polygon fill="black" stroke="black" points="221.015,-181.646 210.765,-178.966 217.106,-187.453 221.015,-181.646"/>
</g>
<!-- MenuItemAdd -->
<g id="node8" class="node"><title>MenuItemAdd</title>
<ellipse fill="none" stroke="black" cx="288.044" cy="-90" rx="63.8893" ry="18"/>
<text text-anchor="middle" x="288.044" y="-86.3" font-family="Times,serif" font-size="14.00">MenuItemAdd</text>
</g>
<!-- Restaurant&#45;&gt;MenuItemAdd -->
<g id="edge8" class="edge"><title>Restaurant&#45;&gt;MenuItemAdd</title>
<path fill="none" stroke="black" d="M290.683,-215.871C290.171,-191.67 289.232,-147.211 288.623,-118.393"/>
<polygon fill="black" stroke="black" points="292.118,-118.113 288.408,-108.189 285.12,-118.261 292.118,-118.113"/>
</g>
<!-- Restaurant&#45;&gt;RestaurantEdit -->
<g id="edge19" class="edge"><title>Restaurant&#45;&gt;RestaurantEdit</title>
<path fill="none" stroke="black" d="M310.332,-217.116C321.583,-207.851 335.964,-196.008 348.402,-185.764"/>
<polygon fill="black" stroke="black" points="350.749,-188.366 356.243,-179.307 346.299,-182.962 350.749,-188.366"/>
</g>
<!-- Restaurant&#45;&gt;RestaurantDelete -->
<g id="edge20" class="edge"><title>Restaurant&#45;&gt;RestaurantDelete</title>
<path fill="none" stroke="black" d="M327.71,-222.216C366.948,-210.675 429.61,-192.245 474.608,-179.011"/>
<polygon fill="black" stroke="black" points="475.606,-182.366 484.212,-176.186 473.631,-175.65 475.606,-182.366"/>
</g>
<!-- RestaurantMenu&#45;&gt;MenuItem -->
<g id="edge11" class="edge"><title>RestaurantMenu&#45;&gt;MenuItem</title>
<path fill="none" stroke="black" d="M162.955,-144.941C148.14,-135.064 129.006,-122.308 113.065,-111.68"/>
<polygon fill="black" stroke="black" points="114.847,-108.662 104.585,-106.027 110.964,-114.486 114.847,-108.662"/>
</g>
<!-- RestaurantMenu&#45;&gt;MenuItemAdd -->
<g id="edge12" class="edge"><title>RestaurantMenu&#45;&gt;MenuItemAdd</title>
<path fill="none" stroke="black" d="M210.216,-144.941C223.945,-135.425 241.53,-123.238 256.511,-112.855"/>
<polygon fill="black" stroke="black" points="258.756,-115.558 264.981,-106.985 254.768,-109.804 258.756,-115.558"/>
</g>
<!-- RestaurantMenu&#45;&gt;MenuItemEdit -->
<g id="edge13" class="edge"><title>RestaurantMenu&#45;&gt;MenuItemEdit</title>
<path fill="none" stroke="black" d="M180.609,-143.799C172.864,-124.715 158.44,-93.7502 139.044,-72 127.891,-59.4923 113.229,-48.3873 99.7612,-39.6148"/>
<polygon fill="black" stroke="black" points="101.462,-36.5501 91.1323,-34.1956 97.7393,-42.478 101.462,-36.5501"/>
</g>
<!-- RestaurantMenu&#45;&gt;MenuItemDelete -->
<g id="edge14" class="edge"><title>RestaurantMenu&#45;&gt;MenuItemDelete</title>
<path fill="none" stroke="black" d="M190.542,-143.871C195.507,-119.564 204.645,-74.8187 210.528,-46.0132"/>
<polygon fill="black" stroke="black" points="213.962,-46.6874 212.534,-36.1893 207.104,-45.2867 213.962,-46.6874"/>
</g>
</g>
</svg>
