<?xml version="1.0" encoding="UTF-8" standalone="no"?>
<!DOCTYPE svg PUBLIC "-//W3C//DTD SVG 1.1//EN"
 "http://www.w3.org/Graphics/SVG/1.1/DTD/svg11.dtd">
<!-- Generated by graphviz version 2.38.0 (20140413.2041)
 -->
<!-- Title: G Pages: 1 -->
<svg width="728pt" height="332pt"
 viewBox="0.00 0.00 728.24 332.00" xmlns="http://www.w3.org/2000/svg" xmlns:xlink="http://www.w3.org/1999/xlink">
<g id="graph0" class="graph" transform="scale(1 1) rotate(0) translate(4 328)">
<title>G</title>
<polygon fill="white" stroke="none" points="-4,4 -4,-328 724.239,-328 724.239,4 -4,4"/>
<!-- Front -->
<g id="node1" class="node"><title>Front</title>
<ellipse fill="none" stroke="black" cx="454.044" cy="-306" rx="29.795" ry="18"/>
<text text-anchor="middle" x="454.044" y="-302.3" font-family="Times,serif" font-size="14.00">Front</text>
</g>
<!-- Restaurants -->
<g id="node2" class="node"><title>Restaurants</title>
<ellipse fill="none" stroke="black" cx="454.044" cy="-234" rx="51.9908" ry="18"/>
<text text-anchor="middle" x="454.044" y="-230.3" font-family="Times,serif" font-size="14.00">Restaurants</text>
</g>
<!-- Front&#45;&gt;Restaurants -->
<g id="edge3" class="edge"><title>Front&#45;&gt;Restaurants</title>
<path fill="none" stroke="black" d="M454.044,-287.697C454.044,-279.983 454.044,-270.712 454.044,-262.112"/>
<polygon fill="black" stroke="black" points="457.545,-262.104 454.044,-252.104 450.545,-262.104 457.545,-262.104"/>
</g>
<!-- MenuItem -->
<g id="node3" class="node"><title>MenuItem</title>
<ellipse fill="none" stroke="black" cx="139.044" cy="-90" rx="48.1917" ry="18"/>
<text text-anchor="middle" x="139.044" y="-86.3" font-family="Times,serif" font-size="14.00">MenuItem</text>
</g>
<!-- Front&#45;&gt;MenuItem -->
<g id="edge5" class="edge"><title>Front&#45;&gt;MenuItem</title>
<path fill="none" stroke="black" d="M424.344,-302.765C361.398,-296.284 214.806,-271.605 147.044,-180 134.105,-162.507 132.942,-137.468 134.536,-118.401"/>
<polygon fill="black" stroke="black" points="138.039,-118.569 135.686,-108.239 131.084,-117.782 138.039,-118.569"/>
</g>
<!-- Restaurant -->
<g id="node4" class="node"><title>Restaurant</title>
<ellipse fill="none" stroke="black" cx="375.044" cy="-162" rx="48.1917" ry="18"/>
<text text-anchor="middle" x="375.044" y="-158.3" font-family="Times,serif" font-size="14.00">Restaurant</text>
</g>
<!-- Front&#45;&gt;Restaurant -->
<g id="edge4" class="edge"><title>Front&#45;&gt;Restaurant</title>
<path fill="none" stroke="black" d="M433.911,-292.669C420.248,-283.231 402.931,-268.971 393.044,-252 382.099,-233.212 377.723,-208.834 376.014,-190.343"/>
<polygon fill="black" stroke="black" points="379.495,-189.946 375.287,-180.223 372.513,-190.448 379.495,-189.946"/>
</g>
<!-- Login -->
<g id="node5" class="node"><title>Login</title>
<ellipse fill="none" stroke="black" cx="556.044" cy="-234" rx="31.6951" ry="18"/>
<text text-anchor="middle" x="556.044" y="-230.3" font-family="Times,serif" font-size="14.00">Login</text>
</g>
<!-- Front&#45;&gt;Login -->
<g id="edge1" class="edge"><title>Front&#45;&gt;Login</title>
<path fill="none" stroke="black" d="M473.23,-291.834C488.661,-281.244 510.561,-266.214 527.965,-254.27"/>
<polygon fill="black" stroke="black" points="530.334,-256.89 536.598,-248.345 526.373,-251.118 530.334,-256.89"/>
</g>
<!-- UserAccount -->
<g id="node6" class="node"><title>UserAccount</title>
<ellipse fill="none" stroke="black" cx="663.044" cy="-234" rx="57.3905" ry="18"/>
<text text-anchor="middle" x="663.044" y="-230.3" font-family="Times,serif" font-size="14.00">UserAccount</text>
</g>
<!-- Front&#45;&gt;UserAccount -->
<g id="edge2" class="edge"><title>Front&#45;&gt;UserAccount</title>
<path fill="none" stroke="black" d="M479.672,-296.417C513.448,-285.104 573.505,-264.989 615.661,-250.87"/>
<polygon fill="black" stroke="black" points="616.795,-254.181 625.166,-247.687 614.572,-247.544 616.795,-254.181"/>
</g>
<!-- Restaurants&#45;&gt;Restaurant -->
<g id="edge14" class="edge"><title>Restaurants&#45;&gt;Restaurant</title>
<path fill="none" stroke="black" d="M435.722,-216.765C425.278,-207.511 412.03,-195.772 400.579,-185.626"/>
<polygon fill="black" stroke="black" points="402.801,-182.918 392.995,-178.906 398.159,-188.157 402.801,-182.918"/>
</g>
<!-- RestaurantAdd -->
<g id="node11" class="node"><title>RestaurantAdd</title>
<ellipse fill="none" stroke="black" cx="582.044" cy="-162" rx="63.8893" ry="18"/>
<text text-anchor="middle" x="582.044" y="-158.3" font-family="Times,serif" font-size="14.00">RestaurantAdd</text>
</g>
<!-- Restaurants&#45;&gt;RestaurantAdd -->
<g id="edge15" class="edge"><title>Restaurants&#45;&gt;RestaurantAdd</title>
<path fill="none" stroke="black" d="M480.566,-218.496C499.32,-208.24 524.702,-194.359 545.389,-183.046"/>
<polygon fill="black" stroke="black" points="547.134,-186.081 554.228,-178.212 543.775,-179.939 547.134,-186.081"/>
</g>
<!-- RestaurantEdit -->
<g id="node12" class="node"><title>RestaurantEdit</title>
<ellipse fill="none" stroke="black" cx="452.044" cy="-90" rx="63.0888" ry="18"/>
<text text-anchor="middle" x="452.044" y="-86.3" font-family="Times,serif" font-size="14.00">RestaurantEdit</text>
</g>
<!-- Restaurants&#45;&gt;RestaurantEdit -->
<g id="edge16" class="edge"><title>Restaurants&#45;&gt;RestaurantEdit</title>
<path fill="none" stroke="black" d="M453.803,-215.871C453.462,-191.67 452.836,-147.211 452.43,-118.393"/>
<polygon fill="black" stroke="black" points="455.927,-118.139 452.287,-108.189 448.928,-118.238 455.927,-118.139"/>
</g>
<!-- RestaurantDelete -->
<g id="node13" class="node"><title>RestaurantDelete</title>
<ellipse fill="none" stroke="black" cx="605.044" cy="-90" rx="71.4873" ry="18"/>
<text text-anchor="middle" x="605.044" y="-86.3" font-family="Times,serif" font-size="14.00">RestaurantDelete</text>
</g>
<!-- Restaurants&#45;&gt;RestaurantDelete -->
<g id="edge17" class="edge"><title>Restaurants&#45;&gt;RestaurantDelete</title>
<path fill="none" stroke="black" d="M461.239,-216.139C470.164,-196.795 486.944,-165.041 509.044,-144 523.587,-130.155 542.441,-118.722 559.586,-110.063"/>
<polygon fill="black" stroke="black" points="561.431,-113.058 568.897,-105.541 558.372,-106.762 561.431,-113.058"/>
</g>
<!-- MenuItemEdit -->
<g id="node8" class="node"><title>MenuItemEdit</title>
<ellipse fill="none" stroke="black" cx="63.0444" cy="-18" rx="63.0888" ry="18"/>
<text text-anchor="middle" x="63.0444" y="-14.3" font-family="Times,serif" font-size="14.00">MenuItemEdit</text>
</g>
<!-- MenuItem&#45;&gt;MenuItemEdit -->
<g id="edge8" class="edge"><title>MenuItem&#45;&gt;MenuItemEdit</title>
<path fill="none" stroke="black" d="M121.799,-73.1159C111.931,-64.0273 99.3702,-52.458 88.3973,-42.3513"/>
<polygon fill="black" stroke="black" points="90.4758,-39.5074 80.7491,-35.307 85.7334,-44.6562 90.4758,-39.5074"/>
</g>
<!-- MenuItemDelete -->
<g id="node9" class="node"><title>MenuItemDelete</title>
<ellipse fill="none" stroke="black" cx="216.044" cy="-18" rx="71.4873" ry="18"/>
<text text-anchor="middle" x="216.044" y="-14.3" font-family="Times,serif" font-size="14.00">MenuItemDelete</text>
</g>
<!-- MenuItem&#45;&gt;MenuItemDelete -->
<g id="edge9" class="edge"><title>MenuItem&#45;&gt;MenuItemDelete</title>
<path fill="none" stroke="black" d="M156.517,-73.1159C166.443,-64.0922 179.059,-52.6231 190.119,-42.5681"/>
<polygon fill="black" stroke="black" points="192.793,-44.8682 197.838,-35.5516 188.084,-39.6886 192.793,-44.8682"/>
</g>
<!-- Restaurant&#45;&gt;MenuItem -->
<g id="edge7" class="edge"><title>Restaurant&#45;&gt;MenuItem</title>
<path fill="none" stroke="black" d="M338.687,-150.216C297.456,-137.987 230.142,-118.021 185.229,-104.699"/>
<polygon fill="black" stroke="black" points="186.026,-101.285 175.444,-101.796 184.035,-107.996 186.026,-101.285"/>
</g>
<!-- MenuItemAdd -->
<g id="node7" class="node"><title>MenuItemAdd</title>
<ellipse fill="none" stroke="black" cx="307.044" cy="-90" rx="63.8893" ry="18"/>
<text text-anchor="middle" x="307.044" y="-86.3" font-family="Times,serif" font-size="14.00">MenuItemAdd</text>
</g>
<!-- Restaurant&#45;&gt;MenuItemAdd -->
<g id="edge6" class="edge"><title>Restaurant&#45;&gt;MenuItemAdd</title>
<path fill="none" stroke="black" d="M359.273,-144.765C350.644,-135.882 339.791,-124.709 330.217,-114.854"/>
<polygon fill="black" stroke="black" points="332.681,-112.367 323.203,-107.633 327.66,-117.245 332.681,-112.367"/>
</g>
<!-- Restaurant&#45;&gt;RestaurantEdit -->
<g id="edge18" class="edge"><title>Restaurant&#45;&gt;RestaurantEdit</title>
<path fill="none" stroke="black" d="M392.517,-145.116C402.611,-135.939 415.488,-124.233 426.681,-114.057"/>
<polygon fill="black" stroke="black" points="429.062,-116.624 434.107,-107.307 424.353,-111.444 429.062,-116.624"/>
</g>
<!-- Restaurant&#45;&gt;RestaurantDelete -->
<g id="edge19" class="edge"><title>Restaurant&#45;&gt;RestaurantDelete</title>
<path fill="none" stroke="black" d="M411.235,-149.985C448.909,-138.52 508.325,-120.436 551.445,-107.313"/>
<polygon fill="black" stroke="black" points="552.66,-110.602 561.207,-104.342 550.622,-103.905 552.66,-110.602"/>
</g>
<!-- RestaurantMenu -->
<g id="node10" class="node"><title>RestaurantMenu</title>
<ellipse fill="none" stroke="black" cx="226.044" cy="-162" rx="69.5877" ry="18"/>
<text text-anchor="middle" x="226.044" y="-158.3" font-family="Times,serif" font-size="14.00">RestaurantMenu</text>
</g>
<!-- RestaurantMenu&#45;&gt;MenuItem -->
<g id="edge10" class="edge"><title>RestaurantMenu&#45;&gt;MenuItem</title>
<path fill="none" stroke="black" d="M205.866,-144.765C194.172,-135.355 179.285,-123.378 166.532,-113.117"/>
<polygon fill="black" stroke="black" points="168.5,-110.208 158.515,-106.666 164.112,-115.662 168.5,-110.208"/>
</g>
<!-- RestaurantMenu&#45;&gt;MenuItemAdd -->
<g id="edge11" class="edge"><title>RestaurantMenu&#45;&gt;MenuItemAdd</title>
<path fill="none" stroke="black" d="M245.24,-144.411C255.807,-135.279 269.079,-123.809 280.613,-113.842"/>
<polygon fill="black" stroke="black" points="282.988,-116.415 288.266,-107.228 278.411,-111.119 282.988,-116.415"/>
</g>
<!-- RestaurantMenu&#45;&gt;MenuItemEdit -->
<g id="edge12" class="edge"><title>RestaurantMenu&#45;&gt;MenuItemEdit</title>
<path fill="none" stroke="black" d="M166.122,-152.736C136.759,-145.637 103.246,-132.457 82.0444,-108 67.3744,-91.0777 63.1249,-65.6085 62.2539,-46.2457"/>
<polygon fill="black" stroke="black" points="65.7527,-46.1451 62.0728,-36.2099 58.7538,-46.2715 65.7527,-46.1451"/>
</g>
<!-- RestaurantMenu&#45;&gt;MenuItemDelete -->
<g id="edge13" class="edge"><title>RestaurantMenu&#45;&gt;MenuItemDelete</title>
<path fill="none" stroke="black" d="M224.838,-143.871C223.134,-119.67 220.003,-75.2108 217.974,-46.3932"/>
<polygon fill="black" stroke="black" points="221.449,-45.9187 217.255,-36.1893 214.466,-46.4105 221.449,-45.9187"/>
</g>
</g>
</svg>
